<mxfile host="app.diagrams.net" agent="Mozilla/5.0 (Windows NT 10.0; Win64; x64; rv:141.0) Gecko/20100101 Firefox/141.0" version="28.0.4">
  <diagram name="Page-1" id="tqIEAlN7oUdj66pCaFBi">
    <mxGraphModel dx="1426" dy="751" grid="1" gridSize="10" guides="1" tooltips="1" connect="1" arrows="1" fold="1" page="1" pageScale="1" pageWidth="850" pageHeight="1100" math="0" shadow="0">
      <root>
        <mxCell id="0" />
        <mxCell id="1" parent="0" />
        <mxCell id="2Zn5e_HnZ_KhdbShyQh5-20" value="" style="rounded=0;whiteSpace=wrap;html=1;fillColor=#b0e3e6;strokeColor=#0e8088;" vertex="1" parent="1">
          <mxGeometry x="40" y="40" width="680" height="530" as="geometry" />
        </mxCell>
        <mxCell id="2Zn5e_HnZ_KhdbShyQh5-3" value="" style="group;fillColor=#dae8fc;strokeColor=#6c8ebf;container=0;" vertex="1" connectable="0" parent="1">
          <mxGeometry x="80" y="120" width="160" height="370" as="geometry" />
        </mxCell>
        <mxCell id="2Zn5e_HnZ_KhdbShyQh5-2" value="&lt;b&gt;Car&lt;/b&gt;" style="text;html=1;align=center;verticalAlign=middle;whiteSpace=wrap;rounded=0;" vertex="1" parent="1">
          <mxGeometry x="80" y="120" width="170" height="30" as="geometry" />
        </mxCell>
        <mxCell id="2Zn5e_HnZ_KhdbShyQh5-4" value="Name" style="rounded=1;whiteSpace=wrap;html=1;fillColor=#d5e8d4;strokeColor=#82b366;" vertex="1" parent="1">
          <mxGeometry x="100" y="190" width="120" height="20" as="geometry" />
        </mxCell>
        <mxCell id="2Zn5e_HnZ_KhdbShyQh5-5" value="Year" style="rounded=1;whiteSpace=wrap;html=1;fillColor=#d5e8d4;strokeColor=#82b366;" vertex="1" parent="1">
          <mxGeometry x="100" y="215" width="120" height="20" as="geometry" />
        </mxCell>
        <mxCell id="2Zn5e_HnZ_KhdbShyQh5-6" value="Make" style="rounded=1;whiteSpace=wrap;html=1;fillColor=#d5e8d4;strokeColor=#82b366;" vertex="1" parent="1">
          <mxGeometry x="100" y="240" width="120" height="20" as="geometry" />
        </mxCell>
        <mxCell id="2Zn5e_HnZ_KhdbShyQh5-7" value="Model" style="rounded=1;whiteSpace=wrap;html=1;fillColor=#d5e8d4;strokeColor=#82b366;" vertex="1" parent="1">
          <mxGeometry x="100" y="265" width="120" height="20" as="geometry" />
        </mxCell>
        <mxCell id="2Zn5e_HnZ_KhdbShyQh5-8" value="Odometer" style="rounded=1;whiteSpace=wrap;html=1;fillColor=#d5e8d4;strokeColor=#82b366;" vertex="1" parent="1">
          <mxGeometry x="100" y="290" width="120" height="20" as="geometry" />
        </mxCell>
        <mxCell id="2Zn5e_HnZ_KhdbShyQh5-9" value="Components" style="rounded=1;whiteSpace=wrap;html=1;fillColor=#f8cecc;strokeColor=#b85450;" vertex="1" parent="1">
          <mxGeometry x="100" y="390" width="120" height="20" as="geometry" />
        </mxCell>
        <mxCell id="2Zn5e_HnZ_KhdbShyQh5-10" value="Color" style="rounded=1;whiteSpace=wrap;html=1;fillColor=#d5e8d4;strokeColor=#82b366;" vertex="1" parent="1">
          <mxGeometry x="100" y="315" width="120" height="20" as="geometry" />
        </mxCell>
        <mxCell id="2Zn5e_HnZ_KhdbShyQh5-11" value="Trim" style="rounded=1;whiteSpace=wrap;html=1;fillColor=#d5e8d4;strokeColor=#82b366;" vertex="1" parent="1">
          <mxGeometry x="100" y="340" width="120" height="20" as="geometry" />
        </mxCell>
        <mxCell id="2Zn5e_HnZ_KhdbShyQh5-12" value="" style="rounded=0;whiteSpace=wrap;html=1;fillColor=#dae8fc;strokeColor=#6c8ebf;" vertex="1" parent="1">
          <mxGeometry x="250" y="120" width="160" height="370" as="geometry" />
        </mxCell>
        <mxCell id="2Zn5e_HnZ_KhdbShyQh5-13" value="&lt;b&gt;Component&lt;/b&gt;" style="text;html=1;align=center;verticalAlign=middle;whiteSpace=wrap;rounded=0;" vertex="1" parent="1">
          <mxGeometry x="250" y="120" width="150" height="30" as="geometry" />
        </mxCell>
        <mxCell id="2Zn5e_HnZ_KhdbShyQh5-14" value="Name" style="rounded=1;whiteSpace=wrap;html=1;fillColor=#d5e8d4;strokeColor=#82b366;" vertex="1" parent="1">
          <mxGeometry x="270" y="190" width="120" height="20" as="geometry" />
        </mxCell>
        <mxCell id="2Zn5e_HnZ_KhdbShyQh5-15" value="Make" style="rounded=1;whiteSpace=wrap;html=1;fillColor=#d5e8d4;strokeColor=#82b366;" vertex="1" parent="1">
          <mxGeometry x="270" y="215" width="120" height="20" as="geometry" />
        </mxCell>
        <mxCell id="2Zn5e_HnZ_KhdbShyQh5-16" value="Model" style="rounded=1;whiteSpace=wrap;html=1;fillColor=#d5e8d4;strokeColor=#82b366;" vertex="1" parent="1">
          <mxGeometry x="270" y="240" width="120" height="20" as="geometry" />
        </mxCell>
        <mxCell id="2Zn5e_HnZ_KhdbShyQh5-17" value="Life (Months)" style="rounded=1;whiteSpace=wrap;html=1;fillColor=#d5e8d4;strokeColor=#82b366;" vertex="1" parent="1">
          <mxGeometry x="270" y="265" width="120" height="20" as="geometry" />
        </mxCell>
        <mxCell id="2Zn5e_HnZ_KhdbShyQh5-18" value="Life (Miles)" style="rounded=1;whiteSpace=wrap;html=1;fillColor=#d5e8d4;strokeColor=#82b366;" vertex="1" parent="1">
          <mxGeometry x="270" y="290" width="120" height="20" as="geometry" />
        </mxCell>
        <mxCell id="2Zn5e_HnZ_KhdbShyQh5-19" value="Unit Cost" style="rounded=1;whiteSpace=wrap;html=1;fillColor=#d5e8d4;strokeColor=#82b366;" vertex="1" parent="1">
          <mxGeometry x="270" y="315" width="120" height="20" as="geometry" />
        </mxCell>
        <mxCell id="2Zn5e_HnZ_KhdbShyQh5-21" value="Data Structures" style="text;html=1;align=center;verticalAlign=middle;whiteSpace=wrap;rounded=0;fontSize=18;" vertex="1" parent="1">
          <mxGeometry x="40" y="40" width="680" height="60" as="geometry" />
        </mxCell>
        <mxCell id="2Zn5e_HnZ_KhdbShyQh5-22" value="Type" style="rounded=1;whiteSpace=wrap;html=1;fillColor=#d5e8d4;strokeColor=#82b366;" vertex="1" parent="1">
          <mxGeometry x="100" y="365" width="120" height="20" as="geometry" />
        </mxCell>
      </root>
    </mxGraphModel>
  </diagram>
</mxfile>
